<svg xmlns="http://www.w3.org/2000/svg" viewBox="0 0 64 64" width="64" height="64">
  <rect width="64" height="64" rx="8" fill="#fff"/>
  <g fill="#fff" stroke="#222" stroke-linecap="round" stroke-linejoin="round">
    <!-- Main vine/spine -->
    <path d="M34,60 C30,48 26,36 24,26 C22,18 24,10 30,4" stroke-width="4" fill="none"/>

    <!-- Top leaf - big and wide -->
    <path d="M30,4 C22,2 10,-2 8,6 C6,12 16,14 24,12
             C18,10 8,14 10,22 C12,28 22,24 26,18
             C28,12 30,8 30,4Z" stroke-width="3"/>
    <path d="M30,4 C38,-2 50,-4 52,4 C54,12 44,14 36,10
             C42,12 52,14 50,22 C48,28 38,22 34,16
             C32,12 30,8 30,4Z" stroke-width="3"/>

    <!-- Middle leaf - angled left -->
    <path d="M26,26 C18,22 8,18 6,26 C4,32 14,32 20,30
             C14,30 6,34 8,40 C10,44 18,40 22,36
             C24,32 26,28 26,26Z" stroke-width="3"/>
    <path d="M26,26 C30,20 38,16 42,22 C44,28 36,30 30,28
             C34,30 40,34 38,38 C36,42 28,38 26,34
             C26,30 26,28 26,26Z" stroke-width="3"/>

    <!-- Bottom leaf - angled right -->
    <path d="M30,44 C24,42 16,38 14,44 C12,50 20,50 26,48
             C22,48 14,52 16,56 C18,60 24,56 28,52
             C30,50 30,46 30,44Z" stroke-width="3"/>
    <path d="M30,44 C36,40 46,38 48,44 C50,50 42,50 36,48
             C40,50 46,54 44,58 C42,60 36,56 32,52
             C30,48 30,46 30,44Z" stroke-width="3"/>
  </g>
</svg>
